<svg width="34" height="20" viewBox="0 0 34 20" fill="none" xmlns="http://www.w3.org/2000/svg">
  <path d="M0 0V20H10.1349C11.0739 20 17.5411 19.8184 17.5411 14.1892C17.5411 10.6715 15.003 9.47635 13.714 9.12162C14.6619 8.6951 16.5489 7.68159 16.5489 4.96622C16.5489 3.45439 16.323 0 9.85137 0H0ZM23.1047 1.85811V3.68243H30.9361V1.85811H23.1047ZM4.60676 3.41216H8.93002C9.33754 3.41216 12.0839 3.20524 12.0839 5.70946C12.0839 7.85051 10.0994 8.07432 9.28439 8.07432H4.60676V3.41216ZM27.2153 5.33784C21.293 5.33784 20.0571 10.2407 20.0571 12.3649C20.0571 18.6698 25.4789 19.3919 27.2153 19.3919C31.8974 19.3919 33.2262 16.5034 33.7711 14.8986H30.3692C30.2363 15.3125 29.244 16.6554 27.357 16.6554C24.1943 16.6554 23.9197 14.299 23.9197 13.2432H33.9837C34.1875 9.59459 32.5131 5.33784 27.2153 5.33784ZM27.109 8.07432C28.0525 8.07432 28.8144 8.33615 29.2706 8.81757C29.7269 9.30321 30.0635 10.0127 30.1565 10.9459H23.9197C23.9374 10.6883 23.9994 10.3927 24.0969 10.0676C24.1943 9.73395 24.3449 9.41723 24.593 9.12162C24.841 8.83024 25.1866 8.57686 25.5852 8.37838C25.9927 8.17568 26.4977 8.07432 27.109 8.07432ZM4.60676 11.0811H9.60332C10.5955 11.0811 12.9344 11.2289 12.9344 13.9527C12.9344 16.5921 9.98869 16.5878 9.53244 16.5878H4.60676V11.0811Z" fill="white"/>
</svg>
