<svg width="140" height="140" viewBox="0 0 140 140" fill="none" xmlns="http://www.w3.org/2000/svg">
<g clip-path="url(#clip0_1466_15)">
<rect width="140" height="140" fill="white"/>
<rect width="140" height="140" rx="12" fill="#16253C"/>
<path d="M70.4823 117.532L82.5681 47.1848H57.4319L69.5177 117.532C69.6197 118.156 70.371 118.156 70.4823 117.532Z" stroke="white" stroke-width="4" stroke-miterlimit="10"/>
<path d="M57.4321 47.1848L38.9092 57.225L63.8785 84.1266" stroke="white" stroke-width="4" stroke-miterlimit="10"/>
<path d="M38.751 57.3236L33.6032 21.4438C33.5475 21.0715 33.9464 20.8525 34.1782 21.1153L57.4316 47.1958" stroke="white" stroke-width="4" stroke-miterlimit="10"/>
<path d="M101.731 57.3236L106.879 21.4438C106.935 21.0715 106.536 20.8525 106.304 21.1153L83.0505 47.1848" stroke="white" stroke-width="4" stroke-miterlimit="10"/>
<path d="M82.7166 47.1848L101.249 57.225L76.2795 84.1266" stroke="white" stroke-width="4" stroke-miterlimit="10"/>
<path d="M38.909 57.5207L38.7235 57.3236L22 89.9187L63.2383 83.404" stroke="white" stroke-width="4" stroke-miterlimit="10"/>
<path d="M68.3861 111.652L22 89.9186" stroke="white" stroke-width="4" stroke-miterlimit="10"/>
<path d="M101.091 57.5207L101.276 57.3236L118 89.9187L76.7615 83.404" stroke="white" stroke-width="4" stroke-miterlimit="10"/>
<path d="M71.6143 111.652L118 89.9186" stroke="white" stroke-width="4" stroke-miterlimit="10"/>
<path d="M63.238 83.404L63.2568 83.5463" stroke="white" stroke-width="4" stroke-miterlimit="10"/>
</g>
<defs>
<clipPath id="clip0_1466_15">
<rect width="140" height="140" fill="white"/>
</clipPath>
</defs>
</svg>
