<svg width="48" height="48" viewBox="0 0 48 48" fill="none" xmlns="http://www.w3.org/2000/svg">
<path d="M37.5499 18.1996L29.7999 10.4496L33.2999 6.94961C33.8666 6.38294 34.5666 6.09961 35.3999 6.09961C36.2332 6.09961 36.9332 6.38294 37.4999 6.94961L41.0499 10.4996C41.6166 11.0663 41.8999 11.7663 41.8999 12.5996C41.8999 13.4329 41.6166 14.1329 41.0499 14.6996L37.5499 18.1996ZM5.9999 41.9996V34.1996L15.6999 24.4996L4.6499 13.3996L13.3499 4.59961L24.4999 15.7496L29.7999 10.4496L37.5499 18.1996L32.2499 23.4996L43.3999 34.6496L34.6499 43.2996L23.5499 32.2496L13.7999 41.9996H5.9999ZM17.8499 22.3496L22.3499 17.8496L18.6999 14.1996L16.2999 16.5996L14.1999 14.4996L16.5999 12.0996L13.3999 8.89961L8.8999 13.3996L17.8499 22.3496ZM34.5499 39.0996L39.0499 34.5996L35.8499 31.3996L33.4499 33.7996L31.3499 31.6996L33.7499 29.2996L30.0999 25.6496L25.5999 30.1496L34.5499 39.0996ZM8.9999 38.9996H12.4999L33.2499 18.2496L29.7499 14.7496L8.9999 35.4996V38.9996Z" fill="#16253C"/>
</svg>
