<svg width="48" height="48" viewBox="0 0 48 48" fill="none" xmlns="http://www.w3.org/2000/svg">
<path d="M24.95 35.0501L43.15 16.9001L39.1 12.9001L20.95 31.0501L24.95 35.0501ZM10.95 37.4501C8.01667 37.2501 5.79167 36.5751 4.275 35.4251C2.75833 34.2751 2 32.6501 2 30.5501C2 28.5501 2.85 26.9167 4.55 25.6501C6.25 24.3834 8.61667 23.6167 11.65 23.3501C13.1167 23.2167 14.2083 22.9501 14.925 22.5501C15.6417 22.1501 16 21.6001 16 20.9001C16 19.9334 15.5167 19.1917 14.55 18.6751C13.5833 18.1584 11.9667 17.7834 9.7 17.5501L9.95 14.5501C12.9167 14.8501 15.1667 15.5334 16.7 16.6001C18.2333 17.6667 19 19.1001 19 20.9001C19 22.4334 18.375 23.6834 17.125 24.6501C15.875 25.6167 14.1333 26.1834 11.9 26.3501C9.6 26.5167 7.875 26.9501 6.725 27.6501C5.575 28.3501 5 29.3167 5 30.5501C5 31.7167 5.50833 32.6251 6.525 33.2751C7.54167 33.9251 9.06667 34.3167 11.1 34.4501L10.95 37.4501ZM25.9 38.3501L17.65 30.1001L37.55 10.2501C38.0167 9.78341 38.5417 9.55841 39.125 9.57508C39.7083 9.59175 40.2333 9.81675 40.7 10.2501L45.8 15.3001C46.2667 15.7667 46.5 16.3001 46.5 16.9001C46.5 17.5001 46.2667 18.0334 45.8 18.5001L25.9 38.3501ZM17.95 40.0001C17.3833 40.1334 16.8833 39.9834 16.45 39.5501C16.0167 39.1167 15.8667 38.6167 16 38.0501L17.65 30.1001L25.9 38.3501L17.95 40.0001Z" fill="#16253C"/>
</svg>
