<svg width="28" height="25" viewBox="0 0 28 25" fill="none" xmlns="http://www.w3.org/2000/svg">
  <path d="M14 0C21.7321 0 28 5.59632 28 12.5C28 19.4037 21.7321 25 14 25C6.26788 25 0 19.4037 0 12.5C0 5.59632 6.26788 0 14 0ZM18.8292 17.5956C19.0861 16.8904 20.2934 9.85956 20.4416 8.47426C20.4869 8.05441 20.3379 7.77574 20.048 7.65147C19.6964 7.50074 19.1751 7.57574 18.5706 7.77059C17.7413 8.0375 7.14329 12.0551 6.53059 12.2882C5.95082 12.5088 5.40071 12.7485 5.40071 13.0971C5.40071 13.3419 5.56377 13.4794 6.01177 13.6221C6.47788 13.7706 7.65224 14.0882 8.34565 14.2588C9.01353 14.4235 9.77365 14.2809 10.1994 14.0441C10.6507 13.7934 15.8636 10.6794 16.2375 10.4066C16.6114 10.1338 16.9095 10.4831 16.604 10.7566C16.2985 11.0294 12.7211 14.1301 12.2484 14.5596C11.6752 15.0809 12.082 15.6206 12.4666 15.8375C12.9055 16.0846 16.0613 17.9743 16.5373 18.2779C17.0133 18.5809 17.4942 18.7184 17.9365 18.7184C18.3779 18.7176 18.6093 18.1978 18.8292 17.5956Z" fill="white"/>
</svg>
