<svg width="28" height="25" viewBox="0 0 28 25" fill="none" xmlns="http://www.w3.org/2000/svg">
  <path d="M14 0C6.26823 0 0 5.59663 0 12.5C0 19.4034 6.26823 25 14 25C21.7318 25 28 19.4034 28 12.5C28 5.59663 21.7318 0 14 0ZM19.5585 17.7885C18.9022 15.9596 17.2663 14.5447 15.1028 14.3524V17.7885H14.7689C8.88246 17.7885 5.52462 14.1788 5.38462 8.17308H8.33377C8.43069 12.5812 10.6045 14.4486 12.3265 14.8337V8.17308H15.1033V11.975C16.8038 11.8115 18.5904 10.0788 19.1929 8.17308H21.9698C21.5072 10.5216 19.5698 12.2538 18.1919 12.9663C19.5693 13.5437 21.7759 15.0548 22.6154 17.7885H19.5585Z" fill="white"/>
</svg>
