<svg width="27" height="25" viewBox="0 0 27 25" fill="none" xmlns="http://www.w3.org/2000/svg">
  <path d="M13.5 0C6.04463 0 0 5.59687 0 12.5C0 14.845 0.711384 17.0313 1.9248 18.9067L0.12085 25L6.84229 23.3663C8.80802 24.4011 11.0773 25 13.5 25C20.9554 25 27 19.4031 27 12.5C27 5.59687 20.9554 0 13.5 0ZM8.87915 6.66911C9.09853 6.66911 9.32393 6.66787 9.51856 6.67725C9.75931 6.68245 10.0213 6.69878 10.2722 7.21232C10.5703 7.82274 11.2195 9.35407 11.3027 9.50928C11.386 9.66448 11.445 9.84733 11.3291 10.0505C11.2189 10.2588 11.1615 10.3849 10.9995 10.5693C10.8319 10.7484 10.6482 10.9709 10.4963 11.1064C10.3287 11.2616 10.1556 11.4318 10.3491 11.7411C10.5426 12.0505 11.2146 13.0647 12.208 13.8835C13.4849 14.9397 14.5622 15.2643 14.8975 15.4195C15.2327 15.5747 15.4269 15.5505 15.6204 15.3422C15.8195 15.1391 16.4566 14.4421 16.6816 14.1317C16.901 13.8213 17.125 13.875 17.4287 13.977C17.737 14.0791 19.3808 14.8289 19.7161 14.9841C20.0513 15.1393 20.2711 15.2162 20.3555 15.3422C20.4421 15.4724 20.4422 16.0923 20.1643 16.8152C19.8864 17.5371 18.5219 18.2351 17.9099 18.2841C17.2923 18.3372 16.7159 18.5411 13.8955 17.513C10.4935 16.2724 8.34805 13.0461 8.18042 12.8377C8.01279 12.6346 6.81812 11.1603 6.81812 9.63949C6.81812 8.11344 7.68224 7.36608 7.98486 7.05566C8.29311 6.74525 8.65415 6.66911 8.87915 6.66911Z" fill="white"/>
</svg>
